<?xml version="1.0" encoding="utf-8"?><svg xmlns="http://www.w3.org/2000/svg" xmlns:xlink="http://www.w3.org/1999/xlink"><symbol viewBox="0 0 24 24" class="aicon aicon-menu" id="apps"><path d="M4 8h4V4H4v4zm6 12h4v-4h-4v4zm-6 0h4v-4H4v4zm0-6h4v-4H4v4zm6 0h4v-4h-4v4zm6-10v4h4V4h-4zm-6 4h4V4h-4v4zm6 6h4v-4h-4v4zm0 6h4v-4h-4v4z"/></symbol><symbol viewBox="0 0 24 24" class="bicon bicon-menu" id="earth"><path d="M17.9 17.39c-.26-.8-1.01-1.39-1.9-1.39h-1v-3a1 1 0 0 0-1-1H8v-2h2a1 1 0 0 0 1-1V7h2a2 2 0 0 0 2-2v-.41c2.93 1.18 5 4.05 5 7.41 0 2.08-.8 3.97-2.1 5.39M11 19.93c-3.95-.49-7-3.85-7-7.93 0-.62.08-1.22.21-1.79L9 15v1a2 2 0 0 0 2 2m1-16A10 10 0 0 0 2 12a10 10 0 0 0 10 10 10 10 0 0 0 10-10A10 10 0 0 0 12 2z"/></symbol><symbol id="menu" viewBox="0 0 24 24"><style>.cst0{fill:#010101}</style><path id="cXMLID_18_" class="cst0" d="M1 13.4h13.8l2.8-2.8H1v2.8zm0 5.5h8.3l2.8-2.8H1v2.8zM1 5.1v2.8h19.3L23 5.1H1z"/></symbol><symbol viewBox="-268 437 24 24" id="planet"><path d="M-248.5 442.4c-3.6-4.1-10-4.5-14.1-.8-4.1 3.6-4.5 10-.8 14.1 2.7 3 6.8 4.1 10.5 2.9 1.3-.4 2.5-1.1 3.6-2.1 4.1-3.7 4.4-10.1.8-14.1zm-1.8 12.9c-1.3 1.1-2.8 1.8-4.4 2.1.7-.6 1.3-1.1 1.9-1.7s-.4-1.6-1-1c-1 .9-2.1 1.8-3 2.7-.7-.1-1.3-.2-1.9-.4 2.7-2.4 5.3-4.7 8-7.1.7-.6-.4-1.6-1-1-2.8 2.5-5.6 4.9-8.4 7.5-.2-.1-.5-.3-.7-.4l3.8-3.5c.7-.6-.4-1.6-1-1-1.3 1.2-2.6 2.3-3.9 3.5l-.4-.4c-.5-.6-.9-1.2-1.3-1.8.7-.6 1.4-1.3 2.1-1.8s-.4-1.6-1-1c-.5.4-1 1-1.6 1.4l-.3-1.2h.1l5.4-4.8c.7-.6-.4-1.6-1-1-1.5 1.3-3 2.7-4.4 4 .1-2.2 1.1-4.4 2.9-5.9 1-.8 2-1.4 3.1-1.8 2.4-.7 5-.4 7 .9-1.5 1.3-3 2.7-4.5 4-.7.6.4 1.6 1 1 1.6-1.4 3.1-2.7 4.7-4.1.3.2.5.5.8.8 1.3 1.5 2 3.2 2.1 5-1 1-2.1 1.8-3.2 2.8-.7.6.4 1.6 1 1 .7-.6 1.3-1.2 2.1-1.8-.5 1.8-1.4 3.6-3 5zm-9.7-7.6c-.4.3-.7.7-1.1 1-.3.2-.2.7.1 1 .3.3.7.2 1-.1.4-.3.7-.7 1.1-1 .3-.2.2-.7-.1-1-.3-.3-.7-.2-1 .1zm3.7-5.7c-.3-.3-.7-.2-1 .1-.4.3-.7.7-1.1 1-.3.2-.2.7.1 1 .3.3.7.2 1-.1.4-.3.7-.7 1.1-1 .2-.3.2-.8-.1-1z"/></symbol><symbol viewBox="0 0 24 24" class="eicon eicon-menu" id="tab"><path d="M21 3H3c-1.1 0-2 .9-2 2v14c0 1.1.9 2 2 2h18c1.1 0 2-.9 2-2V5c0-1.1-.9-2-2-2zm0 16H3V5h10v4h8v10z"/></symbol></svg>