<svg xmlns="http://www.w3.org/2000/svg" xmlns:xlink="http://www.w3.org/1999/xlink"><symbol id="apps" viewBox="0 0 24 24">
  <path d="M4 8h4V4H4v4zm6 12h4v-4h-4v4zm-6 0h4v-4H4v4zm0-6h4v-4H4v4zm6 0h4v-4h-4v4zm6-10v4h4V4h-4zm-6 4h4V4h-4v4zm6 6h4v-4h-4v4zm0 6h4v-4h-4v4z"/>
</symbol><symbol id="earth" viewBox="0 0 24 24">
  <path fill="#000000" d="M17.9,17.39C17.64,16.59 16.89,16 16,16H15V13A1,1 0 0,0 14,12H8V10H10A1,1 0 0,0 11,9V7H13A2,2 0 0,0 15,5V4.59C17.93,5.77 20,8.64 20,12C20,14.08 19.2,15.97 17.9,17.39M11,19.93C7.05,19.44 4,16.08 4,12C4,11.38 4.08,10.78 4.21,10.21L9,15V16A2,2 0 0,0 11,18M12,2A10,10 0 0,0 2,12A10,10 0 0,0 12,22A10,10 0 0,0 22,12A10,10 0 0,0 12,2Z"/>
</symbol><symbol id="menu" viewBox="0 0 24 24">
<style type="text/css">
	.st0{fill:#010101;}
</style>
<path id="XMLID_18_" class="st0" d="M1,13.4h13.8l2.8-2.8H1V13.4z M1,18.9h8.3l2.8-2.8H1L1,18.9L1,18.9z M1,5.1v2.8h19.3L23,5.1H1z"/>
</symbol><symbol id="planet" viewBox="-268 437 24 24">
<g>
	<g>
		<path d="M-248.5,442.4L-248.5,442.4c-3.6-4.1-10-4.5-14.1-0.8c-4.1,3.6-4.5,10-0.8,14.1c2.7,3,6.8,4.1,10.5,2.9
			c1.3-0.4,2.5-1.1,3.6-2.1C-245.2,452.8-244.9,446.4-248.5,442.4z M-250.3,455.3c-1.3,1.1-2.8,1.8-4.4,2.1c0.7-0.6,1.3-1.1,1.9-1.7
			s-0.4-1.6-1-1c-1,0.9-2.1,1.8-3,2.7c-0.7-0.1-1.3-0.2-1.9-0.4c2.7-2.4,5.3-4.7,8-7.1c0.7-0.6-0.4-1.6-1-1
			c-2.8,2.5-5.6,4.9-8.4,7.5c-0.2-0.1-0.5-0.3-0.7-0.4l3.8-3.5c0.7-0.6-0.4-1.6-1-1c-1.3,1.2-2.6,2.3-3.9,3.5
			c-0.1-0.1-0.3-0.3-0.4-0.4c-0.5-0.6-0.9-1.2-1.3-1.8c0.7-0.6,1.4-1.3,2.1-1.8s-0.4-1.6-1-1c-0.5,0.4-1,1-1.6,1.4
			c-0.1-0.4-0.2-0.8-0.3-1.2c0,0,0,0,0.1,0c1.8-1.6,3.6-3.2,5.4-4.8c0.7-0.6-0.4-1.6-1-1c-1.5,1.3-3,2.7-4.4,4
			c0.1-2.2,1.1-4.4,2.9-5.9c1-0.8,2-1.4,3.1-1.8c2.4-0.7,5-0.4,7,0.9c-1.5,1.3-3,2.7-4.5,4c-0.7,0.6,0.4,1.6,1,1
			c1.6-1.4,3.1-2.7,4.7-4.1c0.3,0.2,0.5,0.5,0.8,0.8c1.3,1.5,2,3.2,2.1,5c-1,1-2.1,1.8-3.2,2.8c-0.7,0.6,0.4,1.6,1,1
			c0.7-0.6,1.3-1.2,2.1-1.8C-247.8,452.1-248.7,453.9-250.3,455.3z M-260,447.7c-0.4,0.3-0.7,0.7-1.1,1c-0.3,0.2-0.2,0.7,0.1,1
			c0.3,0.3,0.7,0.2,1-0.1c0.4-0.3,0.7-0.7,1.1-1c0.3-0.2,0.2-0.7-0.1-1C-259.3,447.3-259.7,447.4-260,447.7z M-256.3,442
			c-0.3-0.3-0.7-0.2-1,0.1c-0.4,0.3-0.7,0.7-1.1,1c-0.3,0.2-0.2,0.7,0.1,1c0.3,0.3,0.7,0.2,1-0.1c0.4-0.3,0.7-0.7,1.1-1
			C-256,442.7-256,442.2-256.3,442z"/>
	</g>
</g>
</symbol><symbol id="tab" viewBox="0 0 24 24">
  <path d="M21 3H3c-1.1 0-2 .9-2 2v14c0 1.1.9 2 2 2h18c1.1 0 2-.9 2-2V5c0-1.1-.9-2-2-2zm0 16H3V5h10v4h8v10z"/>
</symbol></svg>